<?xml version="1.0" encoding="UTF-8" standalone="no"?>
<!-- Generator: Adobe Fireworks CS6, Export SVG Extension by Aaron Beall (http://fireworks.abeall.com) . Version: 0.6.1  -->

<svg xmlns:dc="http://purl.org/dc/elements/1.1/" xmlns:cc="http://creativecommons.org/ns#" xmlns:rdf="http://www.w3.org/1999/02/22-rdf-syntax-ns#" xmlns:svg="http://www.w3.org/2000/svg" xmlns="http://www.w3.org/2000/svg" xmlns:xlink="http://www.w3.org/1999/xlink" xmlns:sodipodi="http://sodipodi.sourceforge.net/DTD/sodipodi-0.dtd" xmlns:inkscape="http://www.inkscape.org/namespaces/inkscape" id="Grav-logo.fw-Page%201" viewBox="0 0 1747.8103 185.3582" version="1.1" xml:space="preserve" x="0px" y="0px" width="1747.8103" height="185.3582" inkscape:version="0.48.4 r9939" sodipodi:docname="logo.svg" inkscape:export-filename="D:\Projekte\grav\user\plugins\shortcodes\assets\logo.png" inkscape:export-xdpi="41.218594" inkscape:export-ydpi="41.218594"><metadata id="metadata28"><rdf:RDF><cc:Work rdf:about=""><dc:format>image/svg+xml</dc:format><dc:type rdf:resource="http://purl.org/dc/dcmitype/StillImage" /><dc:title></dc:title></cc:Work></rdf:RDF></metadata><defs id="defs26"><linearGradient inkscape:collect="always" id="linearGradient3869"><stop style="stop-color:white;stop-opacity:1;" offset="0" id="stop3871" /><stop style="stop-color:white;stop-opacity:0;" offset="1" id="stop3873" /></linearGradient><linearGradient id="linearGradient3861"><stop style="stop-color:white;stop-opacity:1;" offset="0" id="stop3863" /><stop style="stop-color:white;stop-opacity:0.11764706;" offset="1" id="stop3865" /></linearGradient>
		
		
		
		
		
	<linearGradient inkscape:collect="always" xlink:href="#linearGradient3869" id="linearGradient3875" x1="779.77899" y1="-128.89807" x2="779.77899" y2="372.51736" gradientUnits="userSpaceOnUse" /></defs><sodipodi:namedview pagecolor="white" bordercolor="#666666" borderopacity="1" objecttolerance="10" gridtolerance="10" guidetolerance="10" inkscape:pageopacity="1" inkscape:pageshadow="2" inkscape:window-width="1424" inkscape:window-height="725" id="namedview24" showgrid="false" fit-margin-top="0" fit-margin-left="0" fit-margin-right="0" fit-margin-bottom="0" inkscape:zoom="0.52122361" inkscape:cx="873.90515" inkscape:cy="97.164886" inkscape:window-x="0" inkscape:window-y="0" inkscape:window-maximized="0" inkscape:current-layer="Grav-logo.fw-Page%201" />
	
<flowRoot transform="matrix(0.82841128,0,0,0.82841128,1725.5728,-145.78468)" style="font-size:32px;font-style:normal;font-weight:normal;line-height:125%;letter-spacing:0px;word-spacing:0px;fill:#003380;fill-opacity:1;stroke:#003380;stroke-width:3;stroke-linecap:round;stroke-linejoin:round;stroke-miterlimit:4;stroke-opacity:1;stroke-dasharray:none;font-family:Sans" id="flowRoot3924" xml:space="preserve"><flowRegion id="flowRegion3926"><rect style="fill:#003380;fill-opacity:1;stroke:#003380;stroke-width:3;stroke-linecap:round;stroke-linejoin:round;stroke-miterlimit:4;stroke-opacity:1;stroke-dasharray:none" y="218.20799" x="-250.50667" height="196.82668" width="903.61334" id="rect3928" /></flowRegion><flowPara style="font-size:74.95420074px;font-style:normal;font-variant:normal;font-weight:normal;font-stretch:normal;letter-spacing:14.48555851px;fill:#003380;fill-opacity:1;stroke:#003380;stroke-width:3;stroke-linecap:round;stroke-linejoin:round;stroke-miterlimit:4;stroke-opacity:1;stroke-dasharray:none;font-family:Arial;-inkscape-font-specification:Arial" id="flowPara3930">Plugin</flowPara></flowRoot><flowRoot xml:space="preserve" id="flowRoot3027" style="font-size:32px;font-style:normal;font-weight:normal;line-height:125%;letter-spacing:12.62310028px;word-spacing:0px;fill:#003380;fill-opacity:1;stroke:#003380;stroke-width:1.07077432;stroke-linecap:round;stroke-linejoin:round;stroke-miterlimit:4;stroke-opacity:1;stroke-dasharray:none;font-family:Sans" transform="matrix(0.9506381,0,0,0.9506381,943.49477,-180.47689)"><flowRegion id="flowRegion3029"><rect id="rect3031" width="939.52118" height="153.7373" x="-250.50667" y="218.20799" style="letter-spacing:12.62310028px;fill:#003380;fill-opacity:1;stroke:#003380;stroke-width:1.07077432;stroke-linecap:round;stroke-linejoin:round;stroke-miterlimit:4;stroke-opacity:1;stroke-dasharray:none" /></flowRegion><flowPara id="flowPara3033" style="font-size:144px;font-style:normal;font-variant:normal;font-weight:normal;font-stretch:normal;letter-spacing:12.62310028px;fill:#003380;fill-opacity:1;stroke:#003380;stroke-width:1.07077432;stroke-linecap:round;stroke-linejoin:round;stroke-miterlimit:4;stroke-opacity:1;stroke-dasharray:none;font-family:Arial;-inkscape-font-specification:Arial">Shortcodes</flowPara></flowRoot><path sodipodi:type="arc" style="fill:url(#linearGradient3875);fill-opacity:1;stroke:none" id="path3824" sodipodi:cx="749.73065" sodipodi:cy="137.688" sodipodi:rx="475.96268" sodipodi:ry="237.98134" d="m 1225.6933,137.688 a 475.96268,237.98134 0 1 1 -951.92533,0 475.96268,237.98134 0 1 1 951.92533,0 z" transform="matrix(1.6694075,0,0,0.26414957,-362.20873,17.520869)" /><g id="g12" transform="translate(0,-0.64180132)">
			<path style="fill:#221e1f" inkscape:connector-curvature="0" id="path14" d="m 98.4134,69.506 c 1.0857,-1.0845 1.0857,-2.8422 0,-3.9258 -1.0861,-1.0845 -2.8442,-1.0845 -3.9299,0 -1.0862,1.0836 -1.0862,2.8413 0,3.9258 1.0857,1.0835 2.8438,1.0835 3.9299,0 z" />
			<path style="fill:#221e1f" inkscape:connector-curvature="0" id="path16" d="m 88.6113,71.4462 c -1.0862,1.0835 -1.0862,2.8413 0,3.9258 1.0842,1.0835 2.8438,1.0835 3.9299,0 1.0842,-1.0845 1.0842,-2.8423 0,-3.9258 -1.0861,-1.0845 -2.8457,-1.0845 -3.9299,0 z" />
			<path style="fill:#221e1f" inkscape:connector-curvature="0" id="path18" d="m 105.6614,72.8903 c -1.6986,-1.6973 -4.452,-1.6958 -6.1496,0 l -3.6169,3.613 c -1.6991,1.6973 -1.6991,4.4478 0,6.1431 l 3.971,3.9682 c 1.6985,1.6973 4.452,1.6958 6.1496,0 l 3.6169,-3.613 c 1.6986,-1.6973 1.6986,-4.4478 0,-6.1446 l -3.971,-3.9667 z" />
			<path style="fill:#221e1f" inkscape:connector-curvature="0" id="path20" d="m 140.0328,59.4342 c 4.5892,-8.7306 -1.9027,-13.8302 -6.365,-18.016 -7.1479,-6.7119 -14.2772,-9.6136 -22.4199,-0.32 -8.1373,9.2941 -2.9673,20.0728 4.476,25.3929 7.4467,5.32 19.7132,1.6713 24.3089,-7.0569 z m -12.3296,-3.5803 c -2.8677,-3.4336 2.4932,-9.6674 5.8566,-5.945 6.1951,6.8582 -2.9839,9.3785 -5.8566,5.945 z" />
			<path style="fill:#221e1f" inkscape:connector-curvature="0" id="path22" d="M 92.7791,0.6418 C 41.5387,0.6418 0,42.1363 0,93.3177 0,144.503 41.5387,186 92.7791,186 c 51.2373,0 92.7756,-41.497 92.7756,-92.6823 0,-51.1814 -41.5383,-92.6759 -92.7756,-92.6759 z m 50.1698,107.8653 c -9.6748,-6.387 -15.2032,-11.7837 -20.019,-21.4598 -3.2932,6.6295 -10.9826,16.4876 -23.9534,24.2425 -6.4753,20.1231 -37.2786,58.6344 -47.2478,53.1753 -2.9518,-1.6148 -3.5124,-3.7419 -2.8458,-5.9362 0.715,-5.5011 12.1068,-18.1443 12.1068,-18.1443 0,0 0.2408,2.6529 3.8851,8.2418 -4.8135,-14.9274 7.9532,-33.3459 11.3352,-39.6158 5.3144,-1.6919 5.6993,-8.5082 5.6993,-8.5082 0.3399,-10.5362 -4.3715,-18.1643 -8.9373,-22.7263 3.2804,3.9995 4.3422,10.0435 4.498,15.5787 0,0.0083 0,0.0195 0,0.0308 0.0166,0.6254 0.0166,1.2391 0.0141,1.8509 -0.1558,4.5819 -1.5432,10.9113 -4.5121,10.9113 l 0.0088,0.04 c -3.0523,-0.1307 -6.8206,0.5201 -10.1875,1.5719 l -7.4433,1.7768 c 0,0 3.9695,-0.1815 6.113,1.6685 -2.3872,3.8833 -7.6929,8.7023 -13.6106,11.4401 -8.61,3.9888 -11.0846,-3.9477 -6.7131,-9.1092 1.0734,-1.2616 2.1576,-2.3251 3.1827,-3.1964 -0.6598,-0.682 -1.0759,-1.5953 -1.1853,-2.7544 -10e-4,-0.006 -0.0054,-0.0117 -0.0068,-0.0176 -0.6002,-2.6334 -0.2691,-6.0523 3.4611,-11.4861 0.7365,-1.1503 1.6194,-2.3295 2.6772,-3.5272 0.0338,-0.041 0.0621,-0.079 0.0963,-0.119 0.0454,-0.0551 0.0962,-0.1073 0.1431,-0.161 0.0268,-0.0298 0.0522,-0.0595 0.0805,-0.0907 C 49.8543,91.881 50.1376,91.5854 50.4404,91.3 54.8855,86.7517 61.9074,82.0215 72.972,77.7761 85.8759,58.8293 90.6014,55.2753 90.6014,55.2753 92.0299,53.8161 94.5269,52.0018 95.4446,51.5393 88.706,39.8425 87.3454,23.3534 89.1109,18.91 c -0.1431,0.2406 -0.2745,0.4864 -0.3839,0.7411 0.6544,-1.5216 1.093,-2.0109 1.7728,-2.8115 1.8402,-2.1749 8.0777,-3.3145 10.3174,1.2928 1.1931,2.4563 1.4183,5.6381 1.3787,8.0238 -4.9394,-0.2572 -9.4198,5.3766 -9.4198,5.3766 0,0 4.0911,-1.9285 9.1737,-1.9626 0,0 1.3547,1.1767 3.045,3.3867 -2.2822,4.2809 -6.0339,13.3496 -3.3171,22.8701 0.4503,1.8763 1.1311,3.4887 1.9765,4.8605 0.0322,0.0591 0.0591,0.1186 0.0918,0.1796 0.0679,0.0888 0.1289,0.1624 0.1924,0.2444 4.4921,6.7558 12.7256,7.5461 12.7256,7.5461 -3.8762,-1.9319 -7.0331,-5.0088 -9.0887,-8.7394 -1.0685,-1.9953 -1.7229,-3.6799 -2.1249,-5.0088 -2.1801,-8.4116 1.0295,-13.3219 2.8668,-16.6139 4.2274,-6.5505 11.9286,-10.5158 20.206,-9.5713 11.617,1.3241 19.9609,11.8056 18.633,23.4073 -0.8097,7.0881 -5.0425,12.9511 -10.858,16.1417 1.3987,3.7814 -0.0962,8.3662 -0.0962,8.3662 3.5221,4.4258 3.6774,6.9773 3.5558,9.3473 -4.4764,-0.7522 -8.8254,2.2656 -8.8254,2.2656 0,0 8.6359,-2.0592 13.653,2.411 3.2628,3.5057 5.439,6.6739 6.7357,9.0136 1.8573,3.337 10.4815,3.575 9.4993,9.5766 -0.9826,5.9928 -7.56,6.0494 -17.8715,-0.7464 z" />
		</g><g id="g3815" transform="translate(0,-0.64180132)"><path d="m 314.5028,95.977 -10.6417,0 c -1.6165,0 -2.9302,1.3153 -2.9302,2.9359 l 0,20.4178 -0.21,0.1756 c -6.263,5.2776 -14.182,8.1794 -22.2968,8.1794 -19.1438,0 -34.7191,-15.5587 -34.7191,-34.6846 0,-19.1278 15.5753,-34.6841 34.7191,-34.6841 7.4438,0 14.5619,2.3535 20.5869,6.811 1.1692,0.8654 2.7916,0.7464 3.8221,-0.28 l 7.5883,-7.5798 c 0.5915,-0.5884 0.9001,-1.406 0.8523,-2.2403 -0.0455,-0.8342 -0.4474,-1.6065 -1.1042,-2.127 -9.015,-7.1442 -20.2896,-11.0758 -31.7454,-11.0758 -28.2466,0 -51.2286,22.9575 -51.2286,51.176 0,28.2185 22.982,51.1741 51.2286,51.1741 14.5844,0 28.5343,-6.268 38.2701,-17.2028 0.4786,-0.5366 0.7418,-1.2274 0.7418,-1.9455 l 0,-26.114 c 0,-1.6206 -1.3137,-2.9359 -2.9332,-2.9359 z" id="path4" inkscape:connector-curvature="0" style="fill:#221e1f" /><path d="m 670.5214,46.529 c -0.544,-0.8206 -1.4671,-1.3182 -2.4516,-1.3182 l -11.5804,0 c -1.1721,0 -2.2309,0.6957 -2.6958,1.7704 l -32.6508,75.7206 -33.2329,-75.7376 c -0.4699,-1.0636 -1.5238,-1.7534 -2.6842,-1.7534 l -11.6194,0 c -0.9914,0 -1.9203,0.4976 -2.4585,1.3265 -0.5431,0.8288 -0.6339,1.8753 -0.2315,2.7832 l 40.2558,91.7314 c 0.4698,1.0635 1.5238,1.7544 2.69,1.7544 l 14.659,0 c 1.1721,0 2.231,-0.7016 2.6959,-1.771 l 39.5476,-91.7348 c 0.3849,-0.905 0.295,-1.9461 -0.2432,-2.7715 z" id="path6" inkscape:connector-curvature="0" style="fill:#221e1f" /><path d="m 518.3438,46.9642 c -0.4699,-1.0636 -1.5238,-1.7534 -2.6901,-1.7534 l -14.6532,0 c -1.172,0 -2.2308,0.6957 -2.6958,1.7704 l -39.5476,91.7349 c -0.3907,0.8996 -0.3009,1.9456 0.2432,2.7661 0.5431,0.8255 1.4612,1.3241 2.4516,1.3241 l 11.5804,0 c 1.1721,0 2.2309,-0.7016 2.6958,-1.771 l 32.645,-75.7234 33.2329,75.74 c 0.4698,1.0635 1.5238,1.7544 2.6841,1.7544 l 11.6253,0 c 0.9914,0 1.9203,-0.4986 2.4575,-1.3241 0.544,-0.8313 0.6291,-1.8782 0.2324,-2.7886 L 518.3438,46.9642 z" id="path8" inkscape:connector-curvature="0" style="fill:#221e1f" /><path d="m 412.3409,109.2477 0.6349,-0.3054 c 11.5687,-5.583 19.0428,-17.4345 19.0428,-30.1958 0,-18.4917 -15.0625,-33.5357 -33.5739,-33.5357 l -42.4925,0 c -1.6195,0 -2.9332,1.3153 -2.9332,2.933 l 0,91.7266 c 0,1.6235 1.3137,2.9359 2.9332,2.9359 l 10.6397,0 c 1.6195,0 2.9342,-1.3124 2.9342,-2.9359 l 0,-78.1706 28.9186,0 c 9.412,0 17.0678,7.6452 17.0678,17.0467 0,7.8398 -5.3292,14.6391 -12.9733,16.529 -1.3762,0.3483 -2.7524,0.5239 -4.0945,0.5239 l -10.6397,0 c -1.1047,0 -2.1127,0.6216 -2.6109,1.6061 -0.504,0.9845 -0.4073,2.1641 0.2491,3.0578 l 30.165,41.1428 c 0.5499,0.7533 1.427,1.2002 2.3617,1.2002 l 13.2223,0 c 1.1038,0 2.1166,-0.6226 2.6148,-1.607 0.504,-0.9894 0.4024,-2.172 -0.2491,-3.0599 l -21.217,-28.8917 z" id="path10" inkscape:connector-curvature="0" style="fill:#221e1f" /></g></svg>